<svg width="50" height="50" viewBox="0 0 50 50" fill="none" xmlns="http://www.w3.org/2000/svg">
<path d="M44.1665 17.5C45.2082 18.2916 45.8332 19.5208 45.8332 20.8333V41.6666C45.8332 42.7717 45.3942 43.8315 44.6128 44.6129C43.8314 45.3943 42.7716 45.8333 41.6665 45.8333H8.33317C7.2281 45.8333 6.16829 45.3943 5.38689 44.6129C4.60549 43.8315 4.1665 42.7717 4.1665 41.6666V20.8333C4.1665 20.1864 4.31711 19.5485 4.60639 18.9699C4.89567 18.3913 5.31569 17.8881 5.83317 17.5L22.4998 4.99996C23.2211 4.45903 24.0983 4.16663 24.9998 4.16663C25.9014 4.16663 26.7786 4.45903 27.4998 4.99996L44.1665 17.5Z" stroke="black" stroke-width="4" stroke-linecap="round" stroke-linejoin="round"/>
<path d="M45.8332 20.8334L27.1457 32.7084C26.5025 33.1113 25.7588 33.3251 24.9998 33.3251C24.2408 33.3251 23.4972 33.1113 22.854 32.7084L4.1665 20.8334" stroke="black" stroke-width="4" stroke-linecap="round" stroke-linejoin="round"/>
</svg>
