<svg width="69" height="69" viewBox="0 0 69 69" fill="none" xmlns="http://www.w3.org/2000/svg">
<rect width="50" height="50" transform="translate(10 10)" fill="white"/>
<path d="M34.5 67C52.4493 67 67 52.4493 67 34.5C67 16.5507 52.4493 2 34.5 2C16.5507 2 2 16.5507 2 34.5C2 52.4493 16.5507 67 34.5 67Z" fill="black" stroke="black" stroke-width="4" stroke-linecap="round" stroke-linejoin="round"/>
<path d="M49.1667 52.1667V48C49.1667 45.7899 48.2887 43.6703 46.7259 42.1075C45.1631 40.5447 43.0435 39.6667 40.8333 39.6667H28.3333C26.1232 39.6667 24.0036 40.5447 22.4408 42.1075C20.878 43.6703 20 45.7899 20 48V52.1667" stroke="white" stroke-width="4" stroke-linecap="round" stroke-linejoin="round"/>
<path d="M34.5833 33.6667C39.1857 33.6667 42.9167 29.9357 42.9167 25.3333C42.9167 20.731 39.1857 17 34.5833 17C29.981 17 26.25 20.731 26.25 25.3333C26.25 29.9357 29.981 33.6667 34.5833 33.6667Z" stroke="white" stroke-width="4" stroke-linecap="round" stroke-linejoin="round"/>
</svg>
