<svg width="50" height="50" viewBox="0 0 50 50" fill="none" xmlns="http://www.w3.org/2000/svg">
<path d="M25.0002 41.6667C29.4204 41.6667 33.6597 39.9108 36.7853 36.7852C39.9109 33.6595 41.6668 29.4203 41.6668 25C41.6668 20.5798 39.9109 16.3405 36.7853 13.2149C33.6597 10.0893 29.4204 8.33337 25.0002 8.33337C20.5799 8.33337 16.3407 10.0893 13.215 13.2149C10.0894 16.3405 8.3335 20.5798 8.3335 25C8.3335 29.4203 10.0894 33.6595 13.215 36.7852C16.3407 39.9108 20.5799 41.6667 25.0002 41.6667Z" stroke="white" stroke-width="4" stroke-linecap="round" stroke-linejoin="round"/>
<path d="M25.0002 29.1667C26.1052 29.1667 27.165 28.7277 27.9464 27.9463C28.7278 27.1649 29.1668 26.1051 29.1668 25C29.1668 23.895 28.7278 22.8352 27.9464 22.0538C27.165 21.2724 26.1052 20.8334 25.0002 20.8334C23.8951 20.8334 22.8353 21.2724 22.0539 22.0538C21.2725 22.8352 20.8335 23.895 20.8335 25C20.8335 26.1051 21.2725 27.1649 22.0539 27.9463C22.8353 28.7277 23.8951 29.1667 25.0002 29.1667Z" stroke="white" stroke-width="4" stroke-linecap="round" stroke-linejoin="round"/>
<path d="M25 4.16663V8.33329" stroke="white" stroke-width="4" stroke-linecap="round" stroke-linejoin="round"/>
<path d="M25 45.8333V41.6666" stroke="white" stroke-width="4" stroke-linecap="round" stroke-linejoin="round"/>
<path d="M35.4168 43.0417L33.3335 39.4375" stroke="white" stroke-width="4" stroke-linecap="round" stroke-linejoin="round"/>
<path d="M22.9168 21.3959L14.5835 6.95837" stroke="white" stroke-width="4" stroke-linecap="round" stroke-linejoin="round"/>
<path d="M43.0417 35.4167L39.4375 33.3334" stroke="white" stroke-width="4" stroke-linecap="round" stroke-linejoin="round"/>
<path d="M6.9585 14.5834L10.5627 16.6667" stroke="white" stroke-width="4" stroke-linecap="round" stroke-linejoin="round"/>
<path d="M29.1665 25H45.8332" stroke="white" stroke-width="4" stroke-linecap="round" stroke-linejoin="round"/>
<path d="M4.1665 25H8.33317" stroke="white" stroke-width="4" stroke-linecap="round" stroke-linejoin="round"/>
<path d="M43.0417 14.5834L39.4375 16.6667" stroke="white" stroke-width="4" stroke-linecap="round" stroke-linejoin="round"/>
<path d="M6.9585 35.4167L10.5627 33.3334" stroke="white" stroke-width="4" stroke-linecap="round" stroke-linejoin="round"/>
<path d="M35.4168 6.95837L33.3335 10.5625" stroke="white" stroke-width="4" stroke-linecap="round" stroke-linejoin="round"/>
<path d="M22.9168 28.6041L14.5835 43.0416" stroke="white" stroke-width="4" stroke-linecap="round" stroke-linejoin="round"/>
</svg>
