<svg width="50" height="50" viewBox="0 0 50 50" fill="none" xmlns="http://www.w3.org/2000/svg">
<path d="M31.2502 45.8334V37.5C31.5401 34.8902 30.7917 32.2711 29.1669 30.2084C35.4169 30.2084 41.6669 26.0417 41.6669 18.75C41.8336 16.1459 41.1044 13.5834 39.5836 11.4584C40.1669 9.06252 40.1669 6.56252 39.5836 4.16669C39.5836 4.16669 37.5002 4.16669 33.3336 7.29169C27.8336 6.25002 22.1669 6.25002 16.6669 7.29169C12.5002 4.16669 10.4169 4.16669 10.4169 4.16669C9.79189 6.56252 9.79189 9.06252 10.4169 11.4584C8.89996 13.5748 8.1637 16.1517 8.33355 18.75C8.33355 26.0417 14.5836 30.2084 20.8336 30.2084C20.0211 31.2292 19.4169 32.3959 19.0627 33.6459C18.7086 34.8959 18.6044 36.2084 18.7502 37.5V45.8334" stroke="black" stroke-width="4" stroke-linecap="round" stroke-linejoin="round"/>
<path d="M18.7498 37.5C9.354 41.6666 8.33317 33.3333 4.1665 33.3333" stroke="black" stroke-width="4" stroke-linecap="round" stroke-linejoin="round"/>
</svg>
