<svg width="50" height="50" viewBox="0 0 50 50" fill="none" xmlns="http://www.w3.org/2000/svg">
<path d="M31.25 25L13.5417 42.7083C11.8125 44.4375 9.02082 44.4375 7.29165 42.7083C6.88094 42.2981 6.55512 41.811 6.33282 41.2748C6.11052 40.7386 5.99609 40.1638 5.99609 39.5833C5.99609 39.0029 6.11052 38.4281 6.33282 37.8919C6.55512 37.3557 6.88094 36.8685 7.29165 36.4583L25 18.75" stroke="white" stroke-width="4" stroke-linecap="round" stroke-linejoin="round"/>
<path d="M36.75 31.25L45.8333 22.1666" stroke="white" stroke-width="4" stroke-linecap="round" stroke-linejoin="round"/>
<path d="M43.5625 24.375L40.9583 21.7709C39.7083 20.5209 39.0208 18.8542 39.0208 17.0834V16.94C39.0208 15.8842 38.6034 14.8712 37.8596 14.1219L33.3542 9.58335C32.2784 8.5013 30.9995 7.64244 29.5909 7.05611C28.1822 6.46977 26.6716 6.16751 25.1458 6.16669H21.3175C20.4187 6.16669 19.9957 7.27701 20.6667 7.87502V7.87502C22.028 9.08209 23.1181 10.564 23.865 12.223C24.612 13.8821 24.9988 15.6806 25 17.5V19.0932C25 20.154 25.4214 21.1714 26.1716 21.9216L27.9951 23.7451C28.7452 24.4953 29.7627 24.9167 30.8235 24.9167H32.8486C33.7939 24.9167 34.7086 25.2514 35.4306 25.8616L39.0208 28.8959" stroke="white" stroke-width="4" stroke-linecap="round" stroke-linejoin="round"/>
</svg>
