<svg width="50" height="50" viewBox="0 0 50 50" fill="none" xmlns="http://www.w3.org/2000/svg">
<path d="M33.3335 16.6667C36.6487 16.6667 39.8281 17.9836 42.1723 20.3279C44.5165 22.6721 45.8335 25.8515 45.8335 29.1667V43.75H37.5002V29.1667C37.5002 28.0616 37.0612 27.0018 36.2798 26.2204C35.4984 25.439 34.4386 25 33.3335 25C32.2284 25 31.1686 25.439 30.3872 26.2204C29.6058 27.0018 29.1668 28.0616 29.1668 29.1667V43.75H20.8335V29.1667C20.8335 25.8515 22.1505 22.6721 24.4947 20.3279C26.8389 17.9836 30.0183 16.6667 33.3335 16.6667Z" stroke="black" stroke-width="4" stroke-linecap="round" stroke-linejoin="round"/>
<path d="M12.4998 18.75H4.1665V43.75H12.4998V18.75Z" stroke="black" stroke-width="4" stroke-linecap="round" stroke-linejoin="round"/>
<path d="M8.33317 12.5C10.6344 12.5 12.4998 10.6345 12.4998 8.33335C12.4998 6.03217 10.6344 4.16669 8.33317 4.16669C6.03198 4.16669 4.1665 6.03217 4.1665 8.33335C4.1665 10.6345 6.03198 12.5 8.33317 12.5Z" stroke="black" stroke-width="4" stroke-linecap="round" stroke-linejoin="round"/>
</svg>
