<svg width="69" height="69" viewBox="0 0 69 69" fill="none" xmlns="http://www.w3.org/2000/svg">
<path d="M34.5 67C52.4493 67 67 52.4493 67 34.5C67 16.5507 52.4493 2 34.5 2C16.5507 2 2 16.5507 2 34.5C2 52.4493 16.5507 67 34.5 67Z" fill="black" stroke="black" stroke-width="4" stroke-linecap="round" stroke-linejoin="round"/>
<path d="M40.0417 16H29.625L24.4167 22.25H18.1667C17.0616 22.25 16.0018 22.689 15.2204 23.4704C14.439 24.2518 14 25.3116 14 26.4167V45.1667C14 46.2717 14.439 47.3315 15.2204 48.1129C16.0018 48.8943 17.0616 49.3333 18.1667 49.3333H51.5C52.6051 49.3333 53.6649 48.8943 54.4463 48.1129C55.2277 47.3315 55.6667 46.2717 55.6667 45.1667V26.4167C55.6667 25.3116 55.2277 24.2518 54.4463 23.4704C53.6649 22.689 52.6051 22.25 51.5 22.25H45.25L40.0417 16Z" stroke="white" stroke-width="4" stroke-linecap="round" stroke-linejoin="round"/>
<path d="M34.8335 41C38.2853 41 41.0835 38.2018 41.0835 34.75C41.0835 31.2982 38.2853 28.5 34.8335 28.5C31.3817 28.5 28.5835 31.2982 28.5835 34.75C28.5835 38.2018 31.3817 41 34.8335 41Z" stroke="white" stroke-width="4" stroke-linecap="round" stroke-linejoin="round"/>
</svg>
