<svg width="69" height="69" viewBox="0 0 69 69" fill="none" xmlns="http://www.w3.org/2000/svg">
<path d="M34.5 67C52.4493 67 67 52.4493 67 34.5C67 16.5507 52.4493 2 34.5 2C16.5507 2 2 16.5507 2 34.5C2 52.4493 16.5507 67 34.5 67Z" stroke="black" stroke-width="4" stroke-linecap="round" stroke-linejoin="round"/>
<path d="M55.0832 17.5833L52.4165 14.9167C52.1821 14.6798 51.903 14.4918 51.5955 14.3635C51.288 14.2352 50.9581 14.1691 50.6248 14.1691C50.2916 14.1691 49.9617 14.2352 49.6542 14.3635C49.3466 14.4918 49.0676 14.6798 48.8332 14.9167L14.9165 48.8333C14.6797 49.0678 14.4916 49.3468 14.3633 49.6543C14.235 49.9619 14.1689 50.2918 14.1689 50.625C14.1689 50.9582 14.235 51.2882 14.3633 51.5957C14.4916 51.9032 14.6797 52.1823 14.9165 52.4167L17.5832 55.0833C17.8161 55.3227 18.0947 55.513 18.4024 55.6429C18.7102 55.7729 19.0408 55.8398 19.3748 55.8398C19.7089 55.8398 20.0395 55.7729 20.3472 55.6429C20.655 55.513 20.9335 55.3227 21.1665 55.0833L55.0832 21.1667C55.3226 20.9337 55.5128 20.6551 55.6428 20.3474C55.7727 20.0397 55.8396 19.709 55.8396 19.375C55.8396 19.041 55.7727 18.7103 55.6428 18.4026C55.5128 18.0949 55.3226 17.8163 55.0832 17.5833Z" stroke="black" stroke-width="4" stroke-linecap="round" stroke-linejoin="round"/>
<path d="M39.1665 24.5833L45.4165 30.8333" stroke="black" stroke-width="4" stroke-linecap="round" stroke-linejoin="round"/>
<path d="M20.4165 22.5V30.8333" stroke="black" stroke-width="4" stroke-linecap="round" stroke-linejoin="round"/>
<path d="M49.5835 39.1667V47.5" stroke="black" stroke-width="4" stroke-linecap="round" stroke-linejoin="round"/>
<path d="M30.8335 14.1667V18.3334" stroke="black" stroke-width="4" stroke-linecap="round" stroke-linejoin="round"/>
<path d="M24.5833 26.6667H16.25" stroke="black" stroke-width="4" stroke-linecap="round" stroke-linejoin="round"/>
<path d="M53.7498 43.3333H45.4165" stroke="black" stroke-width="4" stroke-linecap="round" stroke-linejoin="round"/>
<path d="M32.9167 16.25H28.75" stroke="black" stroke-width="4" stroke-linecap="round" stroke-linejoin="round"/>
</svg>
